<svg width="843" height="843" viewBox="0 0 843 843" fill="none" xmlns="http://www.w3.org/2000/svg">
<path fill-rule="evenodd" clip-rule="evenodd" d="M323.32 136.614L90.6419 198.96L84.3078 200.854C28.1633 219.44 -4.39255 278.854 11.1105 336.712L28.743 402.517L30.4462 407.834C38.1627 428.409 56.4157 440.662 74.1918 444.201L79.9552 445.587C104.617 452.561 124.976 471.951 132.056 498.375C139.681 526.832 129.89 555.923 109.031 574.223L105.713 577.37C92.8096 590.58 84.6294 611.088 90.5134 633.047L108.146 698.852L110.041 705.186C128.626 761.332 188.04 793.886 245.898 778.383L431.289 728.708L380.17 537.932L266.658 568.347C253.11 571.978 238.654 568.086 228.758 558.144C218.862 548.202 215.035 533.727 218.726 520.194L323.32 136.614ZM520.849 704.71L752.894 642.534L759.228 640.639C815.374 622.053 847.929 562.642 832.425 504.782L814.793 438.977L813.09 433.66C805.373 413.085 787.12 400.831 769.343 397.293L763.58 395.907C738.919 388.932 718.56 369.543 711.48 343.119C703.855 314.662 713.646 285.571 734.504 267.271L737.823 264.124C750.726 250.914 758.906 230.406 753.023 208.447L735.39 142.642L733.495 136.308C714.91 80.1632 655.498 47.6069 597.638 63.1105L412.247 112.786L463.657 304.649L577.169 274.233C590.717 270.603 605.172 274.495 615.069 284.437C624.965 294.379 628.791 308.853 625.101 322.387L520.849 704.71Z" fill="#B20F0F"/>
</svg>
